<!-- Generator: Adobe Illustrator 22.1.0, SVG Export Plug-In  -->
<svg version="1.1"
	 xmlns="http://www.w3.org/2000/svg" xmlns:xlink="http://www.w3.org/1999/xlink" xmlns:a="http://ns.adobe.com/AdobeSVGViewerExtensions/3.0/"
	 x="0px" y="0px" width="121.9px" height="52.9px" viewBox="0 0 121.9 52.9" style="enable-background:new 0 0 121.9 52.9;"
	 xml:space="preserve">
<style type="text/css">
	.st0{fill:#EF9953;}
</style>
<defs>
</defs>
<g>
	<g>
		<path class="st0" d="M36.3,12c0,0.5-0.2,0.9-0.6,1.2c-0.5,0.4-1.3,0.4-1.8,0l-6.4-4.7l-1.7-1.3c-0.9-0.6-2.1-0.6-2.9,0L4,21.1
			c-0.6,0.5-1,1.2-1,2v21.2c0,1.4,1.1,2.5,2.5,2.5h22.9c0.4,0,0.8,0.2,1.1,0.4c0.3,0.3,0.4,0.7,0.4,1.1c0,0.8-0.7,1.5-1.5,1.5H5.5
			c-3,0-5.5-2.5-5.5-5.5V23.1c0-1.7,0.8-3.4,2.2-4.4L21,4.8c2-1.4,4.6-1.4,6.5,0l2.9,2.2l5.2,3.8C36.1,11.1,36.3,11.5,36.3,12z"/>
		<path class="st0" d="M121.9,23.1v21.2c0,3-2.5,5.5-5.5,5.5H94c-0.4,0-0.8-0.2-1.1-0.4c-0.3-0.3-0.4-0.7-0.4-1.1
			c0-0.8,0.7-1.5,1.5-1.5h22.5c1.4,0,2.5-1.1,2.5-2.5V23.1c0-0.8-0.4-1.5-1-2L99.1,7.2c-0.9-0.6-2.1-0.6-2.9,0l-2.9,2.1l-5,3.7
			c-0.3,0.2-0.6,0.3-0.9,0.3c-0.3,0-0.6-0.1-0.9-0.3c-0.8-0.6-0.8-1.8,0-2.5l5.6-4.2l2.2-1.7c2-1.4,4.6-1.4,6.5,0l18.8,13.9
			C121.1,19.7,121.9,21.4,121.9,23.1z"/>
	</g>
	<g>
		<path class="st0" d="M83.5,52.9H38.9c-3,0-5.5-2.5-5.5-5.5V22c0-1.7,0.8-3.4,2.2-4.4L57.9,1.1c2-1.5,4.6-1.5,6.6,0l22.3,16.5
			c1.4,1,2.2,2.7,2.2,4.4v25.4C89,50.4,86.5,52.9,83.5,52.9z M61.2,3.1c-0.5,0-1,0.2-1.5,0.5L37.4,20c-0.6,0.5-1,1.2-1,2v25.4
			c0,1.4,1.1,2.5,2.5,2.5h44.6c1.4,0,2.5-1.1,2.5-2.5V22c0-0.8-0.4-1.5-1-2L62.6,3.5C62.2,3.2,61.7,3.1,61.2,3.1z"/>
	</g>
</g>
</svg>
